<svg xmlns="http://www.w3.org/2000/svg" xmlns:xlink="http://www.w3.org/1999/xlink" width="84" height="85" viewBox="0 0 84 85">
  <defs>
    <clipPath id="clip-path">
      <rect id="Rectangle_25" data-name="Rectangle 25" width="84" height="85" transform="translate(-0.038)"/>
    </clipPath>
  </defs>
  <g id="Artboard_3" data-name="Artboard – 3" transform="translate(0.038)" clip-path="url(#clip-path)">
    <g id="internet" transform="translate(0.541 0.626)">
      <g id="Group_17" data-name="Group 17" transform="translate(0)">
        <path id="Path_8" data-name="Path 8" d="M41.376.022a41.5,41.5,0,0,0-4.453.239,39.1,39.1,0,0,0-4,.645q-.383.081-.766.169A41.424,41.424,0,0,0,11.721,12.514q-.776.8-1.52,1.639A41.467,41.467,0,0,0,71.03,70.473q.778-.8,1.52-1.639A41.466,41.466,0,0,0,41.376.022ZM13.567,14.583c.215-.227.444-.444.668-.664.257-.253.513-.507.776-.753.231-.215.469-.423.7-.633.267-.236.533-.473.8-.7.24-.2.488-.4.734-.6.277-.221.553-.442.837-.655q.378-.285.764-.553c.286-.2.573-.414.861-.6q.392-.265.791-.519c.3-.189.593-.376.893-.553q.4-.242.816-.474.459-.261.922-.51.414-.221.83-.43.473-.238.952-.463c.277-.131.565-.264.849-.386.323-.139.654-.277.983-.414.286-.117.57-.232.861-.342.335-.128.672-.246,1.012-.365l.87-.3c.344-.108.691-.215,1.039-.313.292-.084.58-.172.874-.25.108-.029.224-.053.336-.082a34.3,34.3,0,0,0-8.836,14.342,46.426,46.426,0,0,1-9.468-3.645c.052-.046.089-.095.129-.136ZM11.58,16.809a48.025,48.025,0,0,0,10.487,4.18,71.728,71.728,0,0,0-2.791,19.124H2.7a38.62,38.62,0,0,1,8.874-23.3Zm0,49.361a38.627,38.627,0,0,1-8.874-23.3h16.57a71.721,71.721,0,0,0,2.791,19.123,48.059,48.059,0,0,0-10.489,4.175ZM31.4,78.882c-.279-.07-.568-.161-.861-.246-.35-.1-.7-.2-1.047-.316-.292-.095-.58-.195-.866-.3-.34-.117-.68-.238-1.017-.367-.287-.108-.57-.224-.861-.34l-.988-.414q-.423-.187-.841-.384-.484-.228-.968-.467c-.277-.139-.553-.277-.83-.43q-.468-.252-.932-.515c-.277-.154-.538-.311-.8-.471q-.452-.274-.9-.563-.4-.252-.783-.511c-.294-.2-.586-.4-.875-.613-.253-.181-.5-.363-.753-.553-.286-.215-.566-.438-.846-.662-.245-.195-.488-.388-.727-.589-.277-.229-.538-.469-.811-.7-.235-.209-.471-.414-.7-.627-.264-.246-.52-.5-.777-.753-.223-.215-.449-.437-.668-.662-.04-.043-.079-.087-.118-.128a46.4,46.4,0,0,1,9.468-3.646,34.307,34.307,0,0,0,8.853,14.349C31.626,78.932,31.513,78.912,31.4,78.882Zm8.591,1.205c-5.918-.84-11.1-7.013-14.361-16.13a70.245,70.245,0,0,1,14.36-1.695V80.083Zm0-20.587a72.792,72.792,0,0,0-15.23,1.817,69.15,69.15,0,0,1-2.721-18.444h17.95Zm0-19.392H22.04a69.135,69.135,0,0,1,2.721-18.444,72.815,72.815,0,0,0,15.23,1.816Zm0-19.392a70.171,70.171,0,0,1-14.361-1.689C28.893,9.91,34.078,3.737,39.992,2.9V20.715Zm31.179-3.907a38.627,38.627,0,0,1,8.874,23.3H63.47a71.722,71.722,0,0,0-2.783-19.12,48.075,48.075,0,0,0,10.491-4.179ZM51.336,4.1c.291.072.58.162.866.247.35.1.7.2,1.047.316.292.095.58.195.866.3.34.117.68.238,1.017.367.287.108.57.224.861.34l.988.414q.423.187.841.384.484.228.968.467c.277.139.553.277.83.43q.468.252.932.515c.277.154.538.311.8.471q.452.274.9.563.4.252.783.511c.294.2.584.4.874.612.254.181.507.364.753.553.285.215.565.437.845.661.243.194.488.386.727.589.277.229.538.469.811.7.235.209.471.414.7.627.264.246.52.5.777.753.223.215.449.437.668.662.04.043.079.087.118.128a46.4,46.4,0,0,1-9.474,3.65A34.3,34.3,0,0,0,51,4.017C51.11,4.043,51.224,4.066,51.336,4.1Zm-8.58-1.205c5.918.84,11.1,7.013,14.361,16.13a70.244,70.244,0,0,1-14.361,1.69V2.895Zm0,20.587a72.79,72.79,0,0,0,15.23-1.815,69.149,69.149,0,0,1,2.721,18.443H42.757Zm0,19.392H60.708a69.135,69.135,0,0,1-2.721,18.444h0A72.813,72.813,0,0,0,42.757,59.5Zm0,37.212V62.262a70.171,70.171,0,0,1,14.36,1.69c-3.261,9.118-8.445,15.291-14.361,16.131ZM69.186,68.4c-.215.225-.444.442-.666.662-.257.253-.514.509-.778.753-.229.215-.466.414-.7.628-.268.238-.538.476-.808.7-.242.2-.488.4-.734.593-.277.221-.553.442-.837.655q-.378.285-.764.553c-.286.2-.573.414-.861.6q-.392.265-.791.518-.444.286-.9.553c-.277.161-.538.323-.812.474q-.459.261-.923.51-.414.221-.83.43-.473.238-.952.463c-.277.131-.565.264-.849.386-.323.139-.654.277-.983.414-.286.116-.57.232-.861.341-.338.128-.676.249-1.017.367-.287.1-.576.2-.866.3-.345.108-.691.215-1.044.315-.289.085-.58.172-.87.25-.108.029-.224.053-.336.082A34.3,34.3,0,0,0,59.844,64.6a46.426,46.426,0,0,1,9.468,3.645C69.263,68.306,69.224,68.353,69.186,68.4Zm1.984-2.226A48.026,48.026,0,0,0,60.68,61.995a71.727,71.727,0,0,0,2.789-19.124h16.57a38.619,38.619,0,0,1-8.867,23.3Z" transform="translate(0.034 -0.022)" fill="#3e3e3e"/>
      </g>
    </g>
  </g>
</svg>
