<svg xmlns="http://www.w3.org/2000/svg" xmlns:xlink="http://www.w3.org/1999/xlink" width="78" height="86" viewBox="0 0 78 86">
  <defs>
    <clipPath id="clip-path">
      <rect id="Rectangle_20" data-name="Rectangle 20" width="78" height="86"/>
    </clipPath>
  </defs>
  <g id="Artboard_1" data-name="Artboard – 1" clip-path="url(#clip-path)">
    <g id="Group_13" data-name="Group 13" transform="translate(-2437.901 -2850)">
      <g id="lock" transform="translate(2441.901 2850)">
        <g id="Group_9" data-name="Group 9" transform="translate(8.025)">
          <g id="Group_8" data-name="Group 8">
            <path id="Path_5" data-name="Path 5" d="M139.641,0c-14.884,0-26.994,10.649-26.994,23.738V35.362a1.542,1.542,0,0,0,1.631,1.433h9.049a1.541,1.541,0,0,0,1.63-1.433V23.738c0-7.12,6.587-12.913,14.684-12.913s14.684,5.793,14.684,12.913V35.362a1.542,1.542,0,0,0,1.631,1.433H165a1.541,1.541,0,0,0,1.63-1.433V23.738C166.635,10.649,154.526,0,139.641,0Zm23.734,33.928h-5.79V23.738c0-8.7-8.05-15.78-17.944-15.78S121.7,15.037,121.7,23.738v10.19h-5.79V23.738c0-11.509,10.647-20.871,23.734-20.871s23.734,9.363,23.734,20.871Z" transform="translate(-112.647)" fill="#3e3e3e"/>
          </g>
        </g>
        <g id="Group_11" data-name="Group 11" transform="translate(0 33.928)">
          <g id="Group_10" data-name="Group 10">
            <path id="Path_6" data-name="Path 6" d="M127.433,204.89H70.972c-3.744,0-6.789,2.763-6.789,6.158v38.539c0,3.4,3.046,6.158,6.789,6.158h56.461c3.744,0,6.789-2.763,6.789-6.158V211.048C134.222,207.653,131.176,204.89,127.433,204.89Zm3.629,44.7a3.476,3.476,0,0,1-3.629,3.291H70.972a3.476,3.476,0,0,1-3.629-3.291V211.048a3.476,3.476,0,0,1,3.629-3.291h56.461a3.476,3.476,0,0,1,3.629,3.291Z" transform="translate(-64.183 -204.89)" fill="#3e3e3e"/>
          </g>
        </g>
      </g>
      <g id="Group_12" data-name="Group 12" transform="translate(2442 2902)">
        <g id="Rectangle_8" data-name="Rectangle 8" fill="none" stroke="#3e3e3e" stroke-width="2">
          <rect width="69.315" height="17" stroke="none"/>
          <rect x="1" y="1" width="67.315" height="15" fill="none"/>
        </g>
        <line id="Line_2" data-name="Line 2" x1="14" y2="14" transform="translate(2.5 1.5)" fill="none" stroke="#3e3e3e" stroke-linecap="round" stroke-width="2"/>
        <line id="Line_5" data-name="Line 5" x1="14" y2="14" transform="translate(33.363 1.5)" fill="none" stroke="#3e3e3e" stroke-linecap="round" stroke-width="2"/>
        <line id="Line_3" data-name="Line 3" x1="14" y2="14" transform="translate(17.965 1.5)" fill="none" stroke="#3e3e3e" stroke-linecap="round" stroke-width="2"/>
        <line id="Line_4" data-name="Line 4" x1="13.885" y2="14" transform="translate(48.929 1.5)" fill="none" stroke="#3e3e3e" stroke-linecap="round" stroke-width="2"/>
      </g>
    </g>
  </g>
</svg>
