<svg xmlns="http://www.w3.org/2000/svg" xmlns:xlink="http://www.w3.org/1999/xlink" width="78" height="83" viewBox="0 0 78 83">
  <defs>
    <clipPath id="clip-path">
      <rect id="Rectangle_30" data-name="Rectangle 30" width="78" height="83"/>
    </clipPath>
  </defs>
  <g id="Artboard_8" data-name="Artboard – 8" clip-path="url(#clip-path)">
    <g id="Group_218" data-name="Group 218" transform="translate(19360.33 -8572.031)">
      <g id="Ellipse_15" data-name="Ellipse 15" transform="translate(-19304.484 8641.652)" fill="none" stroke="#3e3e3e" stroke-width="1.25">
        <circle cx="3.814" cy="3.814" r="3.814" stroke="none"/>
        <circle cx="3.814" cy="3.814" r="3.189" fill="none"/>
      </g>
      <g id="Ellipse_15-2" data-name="Ellipse 15" transform="translate(-19336.086 8641.652)" fill="none" stroke="#3e3e3e" stroke-width="1.25">
        <circle cx="3.814" cy="3.814" r="3.814" stroke="none"/>
        <circle cx="3.814" cy="3.814" r="3.189" fill="none"/>
      </g>
      <g id="devices" transform="translate(-19359.33 8573.03)">
        <g id="Group_211" data-name="Group 211">
          <g id="Group_210" data-name="Group 210">
            <path id="Path_79" data-name="Path 79" d="M85.925,22.186H73.246L73.183,4.5a4.518,4.518,0,0,0-4.5-4.5H20.7a4.518,4.518,0,0,0-4.5,4.5V76.636a4.518,4.518,0,0,0,4.5,4.5H85.925a6.29,6.29,0,0,0,6.275-6.27V28.587a6.278,6.278,0,0,0-6.275-6.4ZM20.7,79.869a3.246,3.246,0,0,1-3.233-3.233V4.5A3.246,3.246,0,0,1,20.7,1.267H68.746A3.246,3.246,0,0,1,71.979,4.5V22.186h-8.3A6.3,6.3,0,0,0,57.4,28.525V74.866a6.3,6.3,0,0,0,2.536,5.013Zm65.29-.063H63.675a5.06,5.06,0,0,1-5.013-5.013V28.524a5.073,5.073,0,0,1,5.013-5.071h22.25A5.17,5.17,0,0,1,91,28.524V74.8h0a5.018,5.018,0,0,1-5.012,5.006Z" transform="translate(-16.2)" fill="#3e3e3e" stroke="#3e3e3e" stroke-width="1.25"/>
          </g>
        </g>
      </g>
    </g>
  </g>
</svg>
